HIERARCHY
ROOT SpineBase
{
  OFFSET 0.000000 0.000000 0.000000
  CHANNELS 6 Xposition Yposition Zposition Zrotation Xrotation Yrotation
  JOINT SpineMid
  {
    OFFSET -0.000000 30.458360 0.000000
    CHANNELS 3 Zrotation Xrotation Yrotation
    JOINT SpineShoulder
    {
      OFFSET 0.181070 22.601845 -0.714034
      CHANNELS 3 Zrotation Xrotation Yrotation
      JOINT Neck
      {
        OFFSET 0.135638 7.476016 -0.552991
        CHANNELS 3 Zrotation Xrotation Yrotation
        JOINT Head
        {
          OFFSET 2.053103 13.289599 0.392759
          CHANNELS 3 Zrotation Xrotation Yrotation
          End Site
          {
            OFFSET 0 0 0
          }
        }
      }
      JOINT ShoulderLeft
      {
        OFFSET -15.510465 -2.581829 -6.242161
        CHANNELS 3 Zrotation Xrotation Yrotation
        JOINT ElbowLeft
        {
          OFFSET -6.201186 -27.880838 -1.093877
          CHANNELS 3 Zrotation Xrotation Yrotation
          JOINT WristLeft
          {
            OFFSET 0.257177 -20.856072 -2.087610
            CHANNELS 3 Zrotation Xrotation Yrotation
            JOINT HandLeft
            {
              OFFSET 1.011380 -4.742371 0.839522
              CHANNELS 3 Zrotation Xrotation Yrotation
              JOINT HandTipLeft
              {
                OFFSET 0.312489 -9.015853 0.129355
                CHANNELS 3 Zrotation Xrotation Yrotation
                End Site
                {
                  OFFSET 0 0 0
                }
              }
              JOINT ThumbLeft
              {
                OFFSET 4.882879 0.291099 -3.048376
                CHANNELS 3 Zrotation Xrotation Yrotation
                End Site
                {
                  OFFSET 0 0 0
                }
              }
            }
          }
        }
      }
      JOINT ShoulderRight
      {
        OFFSET 15.900036 -1.914331 7.325326
        CHANNELS 3 Zrotation Xrotation Yrotation
        JOINT ElbowRight
        {
          OFFSET 5.910604 -27.756202 2.758107
          CHANNELS 3 Zrotation Xrotation Yrotation
          JOINT WristRight
          {
            OFFSET 4.752844 -19.221480 -6.942551
            CHANNELS 3 Zrotation Xrotation Yrotation
            JOINT HandRight
            {
              OFFSET -1.325083 -7.595328 -2.937613
              CHANNELS 3 Zrotation Xrotation Yrotation
              JOINT HandTipRight
              {
                OFFSET 0.437315 -7.401965 -1.639718
                CHANNELS 3 Zrotation Xrotation Yrotation
                End Site
                {
                  OFFSET 0 0 0
                }
              }
              JOINT ThumbRight
              {
                OFFSET -2.765053 1.919174 -1.020181
                CHANNELS 3 Zrotation Xrotation Yrotation
                End Site
                {
                  OFFSET 0 0 0
                }
              }
            }
          }
        }
      }
    }
  }
  JOINT HipLeft
  {
    OFFSET -5.125961 1.483505 -6.427195
    CHANNELS 3 Zrotation Xrotation Yrotation
    JOINT KneeLeft
    {
      OFFSET -4.799674 -35.162193 -5.439237
      CHANNELS 3 Zrotation Xrotation Yrotation
      JOINT AnkleLeft
      {
        OFFSET -4.728517 -40.050566 13.348294
        CHANNELS 3 Zrotation Xrotation Yrotation
        JOINT FootLeft
        {
          OFFSET 5.892698 -1.929622 -14.601472
          CHANNELS 3 Zrotation Xrotation Yrotation
          End Site
          {
            OFFSET 0 0 0
          }
        }
      }
    }
  }
  JOINT HipRight
  {
    OFFSET 6.604796 0.352081 -0.508629
    CHANNELS 3 Zrotation Xrotation Yrotation
    JOINT KneeRight
    {
      OFFSET 1.165006 -36.792413 -0.066566
      CHANNELS 3 Zrotation Xrotation Yrotation
      JOINT AnkleRight
      {
        OFFSET 0.431034 -38.619900 9.076597
        CHANNELS 3 Zrotation Xrotation Yrotation
        JOINT FootRight
        {
          OFFSET 2.635534 -7.722949 -5.779709
          CHANNELS 3 Zrotation Xrotation Yrotation
          End Site
          {
            OFFSET 0 0 0
          }
        }
      }
    }
  }
}
MOTION
Frames: 14
Frame Time: 0.033333
-70.285726 75.513493 336.879614 4.686416 -10.829527 -11.110425 -0.236147 -0.358933 11.821399 0.010449 0.154107 0.285657 2.325621 1.246355 0.508386 0.000000 0.000000 0.000000 -6.780265 6.893953 1.294604 10.212065 26.090423 -3.523785 6.884397 9.723777 10.329926 3.904717 -10.167761 -5.610858 0.000000 0.000000 0.000000 0.000000 0.000000 0.000000 6.351510 1.785954 -2.149473 -24.126920 36.316239 17.123119 3.541608 12.757814 -12.568479 4.804093 12.257605 9.620907 0.000000 0.000000 0.000000 0.000000 0.000000 0.000000 -11.783609 18.699408 12.452070 1.200364 -12.891559 0.594800 -7.213340 -21.339722 9.035832 0.000000 0.000000 0.000000 17.354637 27.776927 4.596301 -3.997330 -16.233052 7.092149 -10.363421 0.143071 -13.577387 0.000000 0.000000 0.000000
-67.557860 73.765968 337.351996 4.120833 -11.512168 -9.767314 -0.175092 -0.225429 10.426449 -0.008872 0.160512 0.272137 1.962987 0.417021 0.855029 0.000000 0.000000 0.000000 -8.551699 6.999991 1.851163 14.193150 29.407117 -4.645564 8.305395 10.397263 12.048492 2.518323 -10.725987 -6.819041 0.000000 0.000000 0.000000 0.000000 0.000000 0.000000 6.916040 2.459414 -2.241491 -29.973281 39.783162 22.456213 1.421090 15.514178 -13.344256 4.420690 9.953236 10.752135 0.000000 0.000000 0.000000 0.000000 0.000000 0.000000 -14.286915 21.007031 12.257435 2.467848 -15.434305 -0.113398 -3.582166 -14.999883 10.806665 0.000000 0.000000 0.000000 19.151126 28.175710 2.559381 -3.197925 -15.925580 7.614438 -9.451938 4.651669 -13.765006 0.000000 0.000000 0.000000
-64.832713 72.143040 337.724047 3.237683 -11.771856 -8.248057 -0.121237 -0.079410 8.788752 -0.029799 0.114278 0.243772 2.655629 -1.077751 1.176990 0.000000 0.000000 0.000000 -9.688033 7.516492 2.171757 16.835074 31.211775 -5.051594 9.759862 9.923211 13.330502 0.792022 -11.476121 -7.788459 0.000000 0.000000 0.000000 0.000000 0.000000 0.000000 8.466695 3.092435 -2.257169 -38.306455 40.102967 28.362342 9.290702 27.379352 -15.660631 -3.193431 -1.979324 10.004074 0.000000 0.000000 0.000000 0.000000 0.000000 0.000000 -16.275165 23.064044 11.867156 4.056628 -17.908072 -0.667983 -1.113766 -10.587756 12.185198 0.000000 0.000000 0.000000 21.302894 28.192263 0.406030 -2.752279 -15.861198 7.959938 -11.090244 8.428275 -12.022747 0.000000 0.000000 0.000000
-61.574141 71.057170 338.053033 1.956140 -11.938340 -6.155793 0.026875 0.060368 6.513132 -0.038140 0.028863 0.202251 4.810844 -2.461793 1.326943 0.000000 0.000000 0.000000 -10.327348 6.984426 2.604615 19.727374 34.962946 -6.148433 13.405589 8.824131 15.850552 -0.964947 -10.025794 -9.422050 0.000000 0.000000 0.000000 0.000000 0.000000 0.000000 10.391161 4.507230 -2.204161 -47.918282 40.058088 35.104394 4.613953 28.248116 -13.914576 -0.535544 -2.334476 9.715944 0.000000 0.000000 0.000000 0.000000 0.000000 0.000000 -16.690874 24.241032 10.575531 4.137086 -18.320684 -1.972048 1.526518 -9.270998 14.504385 0.000000 0.000000 0.000000 23.036279 28.207619 -2.066456 -2.881510 -16.834000 7.782502 -12.714304 14.907492 -7.986447 0.000000 0.000000 0.000000
-58.049713 70.526647 338.060714 0.655742 -12.173093 -3.868199 0.184880 -0.039239 4.043287 0.073424 0.040202 0.154362 7.059374 -3.690936 1.463595 0.000000 0.000000 0.000000 -11.406655 5.918926 3.222834 25.238813 39.841915 -8.822852 15.918176 8.683569 18.884039 -3.184264 -5.714906 -12.548482 0.000000 0.000000 0.000000 0.000000 0.000000 0.000000 11.884545 6.267806 -2.186784 -58.596050 37.913645 42.218637 -3.875814 26.446579 -11.218643 6.787666 1.190987 11.138790 0.000000 0.000000 0.000000 0.000000 0.000000 0.000000 -16.801742 24.536976 9.073699 4.024807 -16.942711 -3.534771 5.491477 -3.591073 16.010762 0.000000 0.000000 0.000000 24.900660 28.155409 -4.754480 -4.734951 -18.551839 6.791038 -14.765037 21.931216 -1.797296 0.000000 0.000000 0.000000
-54.456154 70.213209 338.129042 -0.483199 -12.611118 -1.094643 0.061545 -0.058410 1.122818 0.089772 0.026968 0.106233 10.067061 -4.357887 1.421288 0.000000 0.000000 0.000000 -12.039456 6.205378 3.639290 36.500248 44.159805 -14.487985 13.623786 7.100814 21.484236 -5.409579 -3.518079 -15.472002 0.000000 0.000000 0.000000 0.000000 0.000000 0.000000 14.299651 7.485045 -2.344156 -70.710111 33.515294 49.110837 -12.752753 29.162861 -6.906136 18.672729 0.506731 13.671119 0.000000 0.000000 0.000000 0.000000 0.000000 0.000000 -16.299630 24.844145 6.889691 2.810093 -14.820723 -5.411694 8.374523 -5.146097 18.098985 0.000000 0.000000 0.000000 26.709358 28.538471 -8.015614 -6.712162 -21.365340 5.655930 -16.514901 30.027156 4.870364 0.000000 0.000000 0.000000
-51.229111 70.419855 338.192396 -2.207025 -13.231703 1.497654 0.017573 -0.161443 -1.719713 0.197574 -0.013581 0.035944 14.083491 -3.738159 0.952592 0.000000 0.000000 0.000000 -13.720301 6.434469 4.443917 53.582531 46.047253 -23.069662 10.094945 18.225069 23.849883 -13.952699 -8.953732 -22.868906 0.000000 0.000000 0.000000 0.000000 0.000000 0.000000 15.649059 9.521385 -2.471861 -79.357168 27.565186 53.123823 -18.764650 25.728220 -5.249416 24.885039 4.777050 14.732215 0.000000 0.000000 0.000000 0.000000 0.000000 0.000000 -14.330218 24.339343 4.354919 1.697079 -11.077495 -6.729358 9.869075 -11.304814 22.759590 0.000000 0.000000 0.000000 28.910639 29.283491 -11.257141 -8.648107 -24.681665 4.284411 -19.336834 36.711511 12.427755 0.000000 0.000000 0.000000
-48.526617 70.835656 338.273194 -3.881211 -13.730923 4.337787 -0.063147 -0.175068 -4.815817 0.154709 -0.172620 -0.031987 16.771382 -2.616768 0.443821 0.000000 0.000000 0.000000 -15.681430 4.459174 5.459892 74.596280 45.247255 -34.835943 8.856817 29.191210 25.562723 -17.693557 -3.851440 -33.754104 0.000000 0.000000 0.000000 0.000000 0.000000 0.000000 16.399765 12.205978 -2.434636 -83.589408 21.203568 52.573532 -19.995133 18.928498 -6.603871 25.404554 10.960587 14.010489 0.000000 0.000000 0.000000 0.000000 0.000000 0.000000 -11.792826 23.049813 1.221684 0.888685 -6.537254 -7.488172 11.051373 -18.237807 27.519746 0.000000 0.000000 0.000000 30.829157 29.838636 -14.518874 -9.025596 -27.617223 3.449541 -26.520062 41.786871 22.878653 0.000000 0.000000 0.000000
-46.169303 71.172934 338.432864 -5.971808 -14.542608 6.744090 -0.259500 -0.371500 -7.572920 0.422613 -0.088726 -0.130747 18.858568 -0.951274 -0.169398 0.000000 0.000000 0.000000 -17.557270 3.882627 6.446487 92.171250 40.985645 -42.591990 15.965270 36.132479 28.911891 -17.016600 6.480230 -48.489768 0.000000 0.000000 0.000000 0.000000 0.000000 0.000000 16.577435 14.796007 -2.368358 -87.299470 16.008508 52.707001 -12.790674 11.378530 -10.886388 15.486684 17.061548 14.231382 0.000000 0.000000 0.000000 0.000000 0.000000 0.000000 -8.282426 21.612669 -1.916586 -0.597511 -1.401104 -7.996576 12.960817 -23.815723 33.180596 0.000000 0.000000 0.000000 33.664366 29.997197 -17.638960 -9.982177 -29.391691 2.399728 -26.621152 41.408724 24.864510 0.000000 0.000000 0.000000
-44.385326 71.619019 338.553674 -7.783029 -15.523164 9.694146 -0.429233 -0.541041 -10.876237 0.663094 0.048800 -0.212560 19.819553 1.287311 -0.807935 0.000000 0.000000 0.000000 -18.425362 3.531322 7.228405 104.303874 36.025031 -47.030446 22.486995 27.585476 36.340891 -10.155149 17.046711 -56.986142 0.000000 0.000000 0.000000 0.000000 0.000000 0.000000 16.421397 16.790733 -2.318512 -89.400879 13.206152 53.487175 -4.660073 3.540666 -15.614783 2.341002 19.901866 14.318452 0.000000 0.000000 0.000000 0.000000 0.000000 0.000000 -4.841828 20.130079 -5.633762 -1.343081 3.210326 -8.004500 14.229566 -29.154915 39.166465 0.000000 0.000000 0.000000 36.277159 29.127523 -21.018850 -10.134878 -29.811098 1.800725 -26.742672 39.528486 25.709592 0.000000 0.000000 0.000000
-42.616468 71.935304 338.736922 -9.589965 -16.622286 12.635642 -0.494981 -0.635690 -14.220796 0.846321 0.177567 -0.286298 20.186845 3.065473 -1.197613 0.000000 0.000000 0.000000 -19.082477 1.774540 7.965720 113.246576 31.297145 -50.724901 19.741589 18.906554 38.920122 -5.305980 16.873133 -52.112690 0.000000 0.000000 0.000000 0.000000 0.000000 0.000000 16.479970 17.847755 -2.411980 -91.233545 11.495045 55.489698 3.891407 -3.664103 -19.112981 -14.439241 20.839790 15.730063 0.000000 0.000000 0.000000 0.000000 0.000000 0.000000 -1.942568 18.877279 -9.173680 -1.220098 6.978281 -7.877724 15.281738 -34.477490 44.877806 0.000000 0.000000 0.000000 38.549966 28.029728 -24.210300 -9.851131 -29.915892 1.371729 -25.940193 35.698957 24.878685 0.000000 0.000000 0.000000
-41.792126 71.938172 338.150166 -11.208559 -16.830795 15.373329 -0.722798 -0.641449 -17.263451 1.325811 -0.309395 -0.430019 18.578672 4.586684 -1.055779 0.000000 0.000000 0.000000 -18.763834 1.296239 8.351667 116.999337 27.848443 -51.319582 17.441190 11.972623 40.180519 -2.541002 15.990938 -46.740013 0.000000 0.000000 0.000000 0.000000 0.000000 0.000000 17.216803 17.753339 -2.723315 -92.935804 11.366412 58.625375 11.664880 -8.511196 -20.541347 -28.770991 16.942259 12.499803 0.000000 0.000000 0.000000 0.000000 0.000000 0.000000 0.403920 16.071145 -12.515842 -0.522593 10.324664 -7.531483 15.351357 -38.405321 49.502638 0.000000 0.000000 0.000000 40.179854 24.335189 -26.190458 -10.115884 -28.177576 1.176183 -27.310912 34.250908 26.419166 0.000000 0.000000 0.000000
-40.817664 72.041792 338.338131 -11.956269 -17.869599 17.258939 -0.655908 -0.589506 -19.389748 1.142194 0.141112 -0.408136 17.143565 5.619218 -0.828062 0.000000 0.000000 0.000000 -17.130163 2.087332 8.329700 116.439976 27.211625 -50.927930 19.630427 6.036601 43.940103 -3.912252 18.816890 -45.747614 0.000000 0.000000 0.000000 0.000000 0.000000 0.000000 19.179014 16.831095 -3.367263 -94.966076 12.039613 61.488334 17.593961 -11.121416 -20.401071 -37.488812 15.258015 10.914409 0.000000 0.000000 0.000000 0.000000 0.000000 0.000000 1.544267 15.893487 -14.567848 1.176384 11.546296 -7.241542 14.306225 -40.738559 51.690343 0.000000 0.000000 0.000000 40.722489 23.609850 -28.079671 -8.920310 -27.340188 1.369473 -29.082317 32.544080 27.803549 0.000000 0.000000 0.000000
-39.054952 72.406851 339.382622 -11.750446 -19.877144 19.425116 -0.345231 -0.452007 -21.717177 0.426583 0.979830 -0.242745 15.041507 6.417851 -0.430436 0.000000 0.000000 0.000000 -15.826195 3.865262 8.401077 115.345314 28.063286 -50.871071 18.385211 -0.150758 45.409243 3.086782 21.829230 -47.087898 0.000000 0.000000 0.000000 0.000000 0.000000 0.000000 23.019666 16.910347 -4.488503 -100.539526 12.729754 64.815354 27.219241 -16.150018 -19.600623 -47.325432 14.833579 10.755584 0.000000 0.000000 0.000000 0.000000 0.000000 0.000000 2.074221 18.242001 -16.544666 2.807855 11.743969 -7.156421 13.299434 -41.325690 51.753821 0.000000 0.000000 0.000000 40.880350 25.609378 -31.035389 -6.897841 -27.857597 1.509912 -33.244418 31.775362 32.249524 0.000000 0.000000 0.000000
